<svg width="140" height="140" viewBox="0 0 140 140" fill="none" xmlns="http://www.w3.org/2000/svg">
<rect x="1" y="1" width="138" height="138" rx="10" fill="#173D31" stroke="white" stroke-width="2"/>
<g filter="url(#filter0_d_1_8)">
<path d="M62.5453 91.84H62.3053C61.612 94.4533 59.9053 96.64 57.1853 98.4C54.5186 100.107 51.052 100.96 46.7853 100.96C43.372 100.96 40.2253 100.347 37.3453 99.12C34.5186 97.84 32.092 96 30.0653 93.6C28.0386 91.1467 26.4386 88.1333 25.2653 84.56C24.1453 80.9333 23.5853 76.7733 23.5853 72.08C23.5853 67.44 24.1453 63.3333 25.2653 59.76C26.3853 56.1333 27.9853 53.12 30.0653 50.72C32.1453 48.2667 34.652 46.4 37.5853 45.12C40.5186 43.84 43.772 43.2 47.3453 43.2C52.3586 43.2 56.5453 44.32 59.9053 46.56C63.2653 48.8 65.852 51.76 67.6653 55.44L62.1453 58.8C60.8653 55.8133 58.9453 53.4667 56.3853 51.76C53.8786 50.0533 50.8653 49.2 47.3453 49.2C44.892 49.2 42.652 49.6533 40.6253 50.56C38.5986 51.4133 36.8386 52.64 35.3453 54.24C33.9053 55.84 32.7853 57.76 31.9853 60C31.1853 62.24 30.7853 64.7467 30.7853 67.52V76.56C30.7853 79.3333 31.1853 81.8667 31.9853 84.16C32.7853 86.4 33.9053 88.32 35.3453 89.92C36.8386 91.52 38.652 92.7733 40.7853 93.68C42.9186 94.5333 45.3186 94.96 47.9853 94.96C49.9053 94.96 51.7186 94.72 53.4253 94.24C55.1853 93.7067 56.7053 92.9333 57.9853 91.92C59.3186 90.9067 60.3586 89.6533 61.1053 88.16C61.852 86.6133 62.2253 84.8 62.2253 82.72V77.2H49.9053V71.28H68.7853V100H62.5453V91.84ZM97.6903 100.96C93.157 100.96 89.2903 100.107 86.0903 98.4C82.8903 96.64 80.1703 94.24 77.9303 91.2L82.8903 87.04C84.8636 89.6533 87.0503 91.6533 89.4503 93.04C91.8503 94.3733 94.677 95.04 97.9303 95.04C101.93 95.04 104.97 94.08 107.05 92.16C109.184 90.24 110.25 87.68 110.25 84.48C110.25 81.8133 109.45 79.76 107.85 78.32C106.25 76.88 103.61 75.7333 99.9303 74.88L95.3703 73.84C90.2503 72.6667 86.3303 70.9067 83.6103 68.56C80.9436 66.16 79.6103 62.8 79.6103 58.48C79.6103 56.0267 80.0636 53.84 80.9703 51.92C81.877 50 83.1303 48.4 84.7303 47.12C86.3836 45.84 88.3303 44.88 90.5703 44.24C92.8636 43.5467 95.3703 43.2 98.0903 43.2C102.304 43.2 105.904 43.9733 108.89 45.52C111.93 47.0667 114.49 49.3333 116.57 52.32L111.53 56C109.984 53.8667 108.117 52.1867 105.93 50.96C103.744 49.7333 101.024 49.12 97.7703 49.12C94.197 49.12 91.3703 49.8933 89.2903 51.44C87.2636 52.9333 86.2503 55.2 86.2503 58.24C86.2503 60.9067 87.1036 62.9333 88.8103 64.32C90.5703 65.6533 93.2103 66.72 96.7303 67.52L101.29 68.56C106.784 69.7867 110.757 71.6533 113.21 74.16C115.664 76.6667 116.89 80 116.89 84.16C116.89 86.72 116.437 89.04 115.53 91.12C114.677 93.2 113.424 94.96 111.77 96.4C110.117 97.84 108.09 98.96 105.69 99.76C103.344 100.56 100.677 100.96 97.6903 100.96Z" fill="white"/>
</g>
<defs>
<filter id="filter0_d_1_8" x="19.5853" y="43.2" width="101.305" height="65.76" filterUnits="userSpaceOnUse" color-interpolation-filters="sRGB">
<feFlood flood-opacity="0" result="BackgroundImageFix"/>
<feColorMatrix in="SourceAlpha" type="matrix" values="0 0 0 0 0 0 0 0 0 0 0 0 0 0 0 0 0 0 127 0" result="hardAlpha"/>
<feOffset dy="4"/>
<feGaussianBlur stdDeviation="2"/>
<feComposite in2="hardAlpha" operator="out"/>
<feColorMatrix type="matrix" values="0 0 0 0 0 0 0 0 0 0 0 0 0 0 0 0 0 0 0.25 0"/>
<feBlend mode="normal" in2="BackgroundImageFix" result="effect1_dropShadow_1_8"/>
<feBlend mode="normal" in="SourceGraphic" in2="effect1_dropShadow_1_8" result="shape"/>
</filter>
</defs>
</svg>
